<?xml version="1.0" standalone="no"?>
<!DOCTYPE svg PUBLIC "-//W3C//DTD SVG 20010904//EN"
 "http://www.w3.org/TR/2001/REC-SVG-20010904/DTD/svg10.dtd">
<svg version="1.0" xmlns="http://www.w3.org/2000/svg"
 width="512.000000pt" height="512.000000pt" viewBox="0 0 512.000000 512.000000"
 preserveAspectRatio="xMidYMid meet">
<metadata>
Created by potrace 1.11, written by Peter Selinger 2001-2013
</metadata>
<g transform="translate(0.000000,512.000000) scale(0.100000,-0.100000)"
fill="#000000" stroke="none">
<path d="M0 2560 l0 -2560 2560 0 2560 0 0 2560 0 2560 -2560 0 -2560 0 0
-2560z m2153 692 l-503 -2 0 -1150 0 -1150 -250 0 -250 0 0 1150 0 1150 -502
2 -503 3 628 647 627 647 628 -647 627 -647 -502 -3z m1807 -72 l0 -1150 500
0 c275 0 500 -3 500 -6 0 -3 -281 -295 -625 -649 l-625 -644 -625 644 c-344
354 -625 646 -625 649 0 3 225 6 500 6 l500 0 0 1150 0 1150 250 0 250 0 0
-1150z"/>
</g>
</svg>
