<svg xmlns="http://www.w3.org/2000/svg" viewBox="0 0 46.04 46.04"><defs><style>.\35 a6b0bcb-66aa-49aa-92b1-79d19392ecaa{fill:#d6d7d8;}.\37 a7ba39a-4e93-47da-bb30-f95ad4421831{fill:none;stroke:#aaa;stroke-miterlimit:10;stroke-width:3px;}.\36 a26f64c-b782-4c0a-81c3-ad2baf55571d{fill:#3f9fff;}</style></defs><title>loader</title><g id="83d6031c-ba25-469f-9c51-efa9b0a7eb07" data-name="Calque 1"><path class="5a6b0bcb-66aa-49aa-92b1-79d19392ecaa" d="M23,46A23,23,0,1,1,46,23,23,23,0,0,1,23,46ZM23,3A20,20,0,1,0,43,23,20,20,0,0,0,23,3Z"/><path class="7a7ba39a-4e93-47da-bb30-f95ad4421831" d="M189.58,126"/></g><g id="d107f2d7-eaa6-48a0-b7e5-61e275118231" data-name="Calque 2"><path class="6a26f64c-b782-4c0a-81c3-ad2baf55571d" d="M15.39,44.63a1.5,1.5,0,0,1-.53-.1A23.14,23.14,0,0,1,0,23,22.9,22.9,0,0,1,6.51,7,1.5,1.5,0,1,1,8.67,9.06,19.92,19.92,0,0,0,3,23,20.13,20.13,0,0,0,15.92,41.72a1.5,1.5,0,0,1-.53,2.9Z"/></g></svg>