<svg id="cc6cf356-e562-49c9-bf60-f96a45c05a55" data-name="Calque 2" xmlns="http://www.w3.org/2000/svg" viewBox="0 0 170 169.99"><defs><style>.\31 4c17ce5-4449-4525-8e15-10ab75cc4db3{fill:#389dff;}.c33cd738-9983-4b48-9b5c-da3ab1fe1fc9{fill:#fff;}</style></defs><title>smiley_happy</title><g id="423b5f7a-7535-4acb-b789-37ef63d03f6c" data-name="Fn8arm.tif"><path class="14c17ce5-4449-4525-8e15-10ab75cc4db3" d="M85.18,170A88.27,88.27,0,0,1,68,168.29a82.8,82.8,0,0,1-21-7.27A84.12,84.12,0,0,1,26.4,146.53a85.9,85.9,0,0,1-13.66-16.79,85,85,0,0,1-9.91-23.06A88.21,88.21,0,0,1,.31,92C.2,90.68.14,89.43.08,88.23c0-.52,0-1-.08-1.56V84.1c0-.47,0-.95.06-1.42,0-1.19.09-2.41.24-3.71.09-.79.18-1.58.27-2.36.32-2.93.66-6,1.27-9a81.9,81.9,0,0,1,9.08-24.25A85.56,85.56,0,0,1,34.28,16.81,84.61,84.61,0,0,1,77.91.33C79.12.23,80.33.17,81.54.1L83.43,0H87L88.59.1c1.2.06,2.43.13,3.69.24a82.36,82.36,0,0,1,17.88,3.44A87,87,0,0,1,130.34,13,85.22,85.22,0,0,1,169.27,73.5a90,90,0,0,1,.64,15.89,82.28,82.28,0,0,1-4.18,22.45,85.49,85.49,0,0,1-40,47.84,84.61,84.61,0,0,1-19.55,7.69,85.47,85.47,0,0,1-16.91,2.52Q87.21,170,85.18,170ZM10,86.26q0,.75.07,1.5c.05,1.16.1,2.26.2,3.33a78.2,78.2,0,0,0,2.23,13,74.62,74.62,0,0,0,20.83,35.18,74.14,74.14,0,0,0,18.1,12.76,72.79,72.79,0,0,0,18.49,6.4,78.27,78.27,0,0,0,18.86,1.42,75.56,75.56,0,0,0,14.93-2.23,74.79,74.79,0,0,0,41.58-28,73.76,73.76,0,0,0,10.95-21A72.3,72.3,0,0,0,159.92,89a80.28,80.28,0,0,0-.55-14.13A75.17,75.17,0,0,0,125,21.49a77.13,77.13,0,0,0-17.88-8.19,72.56,72.56,0,0,0-15.73-3c-1.1-.1-2.21-.16-3.32-.22L86.56,10h-3l-1.48.08c-1.13.06-2.26.12-3.39.21A74.63,74.63,0,0,0,40.26,24.83,75.64,75.64,0,0,0,19.61,48.3a71.91,71.91,0,0,0-8,21.29c-.53,2.59-.82,5.27-1.13,8.11-.09.81-.18,1.62-.27,2.43S10.1,82,10.06,83c0,.48,0,1-.06,1.45Z"/><path class="c33cd738-9983-4b48-9b5c-da3ab1fe1fc9" d="M126.58,89.69c0,2,.06,3.74,0,5.49a43,43,0,0,1-2.76,13.3,44.56,44.56,0,0,1-9.18,14.83,41.45,41.45,0,0,1-33.85,13A38.44,38.44,0,0,1,66,132,43.92,43.92,0,0,1,46.8,112.46a46.75,46.75,0,0,1-4.49-21.88c0-.25.07-.5.12-.86l1.79.91a3.62,3.62,0,0,0,5.17-3.92A3.91,3.91,0,0,0,47.09,84l-6.84-3.42C39.16,80.06,38.09,79.44,37,79a3.55,3.55,0,0,0-2.85,6.48c.55.29,1.09.62,1.66.86a.86.86,0,0,1,.56,1c-.1,1-.2,1.91-.25,2.87a50,50,0,0,0,2.35,17.91,51.83,51.83,0,0,0,9.71,17.57,47.21,47.21,0,0,0,54,13.55,48.31,48.31,0,0,0,16.77-11.41A49.94,49.94,0,0,0,130,109.8a50.59,50.59,0,0,0,2.71-22.18c-.07-.75.09-1.21.85-1.47A8.88,8.88,0,0,0,135,85.4a3.57,3.57,0,0,0,.44-5.87,3.47,3.47,0,0,0-3.89-.37c-3.31,1.65-6.6,3.32-9.9,5a4.55,4.55,0,0,0-.53.32A3.54,3.54,0,0,0,120,89.22a3.6,3.6,0,0,0,4.87,1.36C125.36,90.3,125.9,90,126.58,89.69ZM76.76,53.45c-.17-1.29-.37-3.83-.85-6.32a20.32,20.32,0,0,0-4.25-9.51c-2.92-3.47-6.73-3.65-9.92-.46a14.71,14.71,0,0,0-3.3,5.24A34.16,34.16,0,0,0,58,65.77a16,16,0,0,0,4,6.77c2.64,2.54,5.74,2.67,8.54.34A13.46,13.46,0,0,0,74,68.05C76,63.83,76.67,59.33,76.76,53.45Zm36.58.86A30.59,30.59,0,0,0,112,44.85a17.71,17.71,0,0,0-4.59-8.12,5.81,5.81,0,0,0-7.87-.57,14.1,14.1,0,0,0-4.74,7,34.29,34.29,0,0,0-.1,22.8,15.54,15.54,0,0,0,4.35,6.92,5.77,5.77,0,0,0,7.58.42,12.67,12.67,0,0,0,4-5.12A31.27,31.27,0,0,0,113.34,54.31Z"/><path class="14c17ce5-4449-4525-8e15-10ab75cc4db3" d="M126.58,89.69c-.68.35-1.21.61-1.74.89A3.6,3.6,0,0,1,120,89.22a3.54,3.54,0,0,1,1.13-4.75,4.55,4.55,0,0,1,.53-.32c3.3-1.67,6.59-3.34,9.9-5a3.47,3.47,0,0,1,3.89.37A3.57,3.57,0,0,1,135,85.4a8.88,8.88,0,0,1-1.45.75c-.75.26-.92.72-.85,1.47A50.59,50.59,0,0,1,130,109.8a49.94,49.94,0,0,1-11.12,18.07,48.31,48.31,0,0,1-16.77,11.41,47.63,47.63,0,0,1-54-13.55,51.83,51.83,0,0,1-9.71-17.57,50,50,0,0,1-2.35-17.91c0-1,.15-1.91.25-2.87a.86.86,0,0,0-.56-1c-.58-.23-1.11-.57-1.66-.86A3.55,3.55,0,0,1,37,79c1.13.44,2.2,1.07,3.29,1.61L47.09,84a3.91,3.91,0,0,1,2.3,2.69,3.62,3.62,0,0,1-5.17,3.92l-1.79-.91c-.05.37-.11.61-.12.86a46.75,46.75,0,0,0,4.49,21.88A43.92,43.92,0,0,0,66,132a38.44,38.44,0,0,0,14.74,4.25,41.45,41.45,0,0,0,33.85-13,44.56,44.56,0,0,0,9.18-14.83,43,43,0,0,0,2.76-13.3C126.64,93.42,126.58,91.66,126.58,89.69Z"/><path class="14c17ce5-4449-4525-8e15-10ab75cc4db3" d="M76.76,53.45C76.67,59.33,76,63.83,74,68.05a13.46,13.46,0,0,1-3.49,4.83c-2.79,2.33-5.9,2.2-8.54-.34a16,16,0,0,1-4-6.77,34.16,34.16,0,0,1,.47-23.36,14.71,14.71,0,0,1,3.3-5.24c3.19-3.19,7-3,9.92.46a20.32,20.32,0,0,1,4.25,9.51C76.39,49.62,76.59,52.17,76.76,53.45Z"/><path class="14c17ce5-4449-4525-8e15-10ab75cc4db3" d="M113.34,54.31a31.27,31.27,0,0,1-2.71,13.88,12.67,12.67,0,0,1-4,5.12,5.77,5.77,0,0,1-7.58-.42A15.54,15.54,0,0,1,94.71,66a34.29,34.29,0,0,1,.1-22.8,14.1,14.1,0,0,1,4.74-7,5.81,5.81,0,0,1,7.87.57A17.71,17.71,0,0,1,112,44.85,30.59,30.59,0,0,1,113.34,54.31Z"/></g></svg>