<svg id="c1e9da04-a2e9-45b6-9e7a-ef45c0c4a84f" data-name="Calque 1" xmlns="http://www.w3.org/2000/svg" viewBox="0 0 170.01 170"><defs><style>.d39c5ba7-f120-4d3d-85ea-ab17a52561ae{fill:#389dff;}</style></defs><title>smiley_happy</title><g id="194c1b16-333c-49e0-8a11-76f952c98fed" data-name="423b5f7a-7535-4acb-b789-37ef63d03f6c"><path class="d39c5ba7-f120-4d3d-85ea-ab17a52561ae" d="M85.18,170A88.27,88.27,0,0,1,68,168.29,82.8,82.8,0,0,1,47,161a84.12,84.12,0,0,1-20.6-14.49,85.9,85.9,0,0,1-13.66-16.79,85,85,0,0,1-9.91-23.06A88.21,88.21,0,0,1,.31,92C.2,90.68.14,89.43.08,88.23A10.46,10.46,0,0,0,0,86.67V84.1a11.24,11.24,0,0,1,.06-1.42A32.32,32.32,0,0,1,.3,79l.27-2.36c.32-2.93.66-6,1.27-9a81.9,81.9,0,0,1,9.08-24.25A85.56,85.56,0,0,1,34.28,16.81,84.61,84.61,0,0,1,77.91.33C79.12.23,80.33.17,81.54.1L83.43,0H87l1.59.1c1.2.06,2.43.13,3.69.24a82.36,82.36,0,0,1,17.88,3.44A87,87,0,0,1,130.34,13a85.22,85.22,0,0,1,38.93,60.5,90,90,0,0,1,.64,15.89,82.28,82.28,0,0,1-4.18,22.45,85.49,85.49,0,0,1-40,47.84,84.61,84.61,0,0,1-19.55,7.69,85.47,85.47,0,0,1-16.91,2.52Q87.21,170,85.18,170ZM10,86.26q0,.75.07,1.5c.05,1.16.1,2.26.2,3.33a78.2,78.2,0,0,0,2.23,13A75.36,75.36,0,0,0,51.43,152a72.79,72.79,0,0,0,18.49,6.4,78.27,78.27,0,0,0,18.86,1.42,75.56,75.56,0,0,0,14.93-2.23,74.79,74.79,0,0,0,41.58-28,73.76,73.76,0,0,0,10.95-21A72.3,72.3,0,0,0,159.92,89a80.28,80.28,0,0,0-.55-14.13A75.17,75.17,0,0,0,125,21.49a77.13,77.13,0,0,0-17.88-8.19,72.56,72.56,0,0,0-15.73-3c-1.1-.1-2.21-.16-3.32-.22L86.56,10h-3l-1.48.08c-1.13.06-2.26.12-3.39.21A74.63,74.63,0,0,0,40.26,24.83,75.64,75.64,0,0,0,19.61,48.3a71.91,71.91,0,0,0-8,21.29c-.53,2.59-.82,5.27-1.13,8.11l-.27,2.43c-.09.81-.11,1.87-.15,2.87A11.48,11.48,0,0,1,10,84.45Z"/></g><rect class="d39c5ba7-f120-4d3d-85ea-ab17a52561ae" x="47.12" y="92.25" width="38.79" height="13.18" transform="translate(89.37 -18.09) rotate(45)"/><rect class="d39c5ba7-f120-4d3d-85ea-ab17a52561ae" x="60.93" y="81.1" width="69.53" height="13.5" transform="translate(225.48 82.31) rotate(135)"/></svg>