<svg id="4d348cb4-c798-41e8-ab2a-1816a8300a1d" data-name="Calque 5" xmlns="http://www.w3.org/2000/svg" viewBox="0 0 170 170"><defs><style>.\37 3cdc416-7da0-4f35-a4c3-7ddfb7f09392{fill:#fff;}.cde94a30-2b9a-4768-8d7f-2dd48be027c4{fill:#389dff;}.df07b047-dcf5-4eb0-9994-5bb6abb0d645{fill:#fcfcfc;}</style></defs><title>smiley_error</title><circle class="73cdc416-7da0-4f35-a4c3-7ddfb7f09392" cx="85" cy="85" r="80"/><path class="cde94a30-2b9a-4768-8d7f-2dd48be027c4" d="M85,170a85,85,0,1,1,85-85A85.1,85.1,0,0,1,85,170ZM85,10a75,75,0,1,0,75,75A75.09,75.09,0,0,0,85,10Z"/><ellipse class="cde94a30-2b9a-4768-8d7f-2dd48be027c4" cx="57.5" cy="63.5" rx="17.5" ry="12.5" transform="translate(-24.85 87.12) rotate(-63.84)"/><ellipse class="cde94a30-2b9a-4768-8d7f-2dd48be027c4" cx="114" cy="63.5" rx="12" ry="17.5" transform="translate(-15.37 46.44) rotate(-21.61)"/><path class="cde94a30-2b9a-4768-8d7f-2dd48be027c4" d="M38.8,39.8c5.81-5.28,14.85-8.83,23.67-9.31a4.77,4.77,0,0,1,3,.51c1.62,1.3-1.4,3.41-3.92,4.22C61.57,35.22,44.6,39.6,38.8,39.8Z"/><path class="cde94a30-2b9a-4768-8d7f-2dd48be027c4" d="M112.27,36.35c-2.34-1.25-4.57-4.26-2.69-5a4.92,4.92,0,0,1,3,.39c8.33,2.94,16.08,8.76,20.31,15.25C132.91,47,134,48,112.27,36.35Z"/><path class="cde94a30-2b9a-4768-8d7f-2dd48be027c4" d="M114.78,117.85c-7.89-10.22-22.55-12.7-35.31-10.68-13.16,2.08-26.56,9.22-32.15,21a82,82,0,0,1,54.15-1.1c2.87,1,5.8,2.08,8.82,1.9s6.2-2.12,6.65-5.11C117.27,121.71,116.12,119.59,114.78,117.85Z"/><ellipse class="df07b047-dcf5-4eb0-9994-5bb6abb0d645" cx="59.76" cy="63.4" rx="7.36" ry="4.77" transform="translate(-11.48 113.54) rotate(-81.83)"/><ellipse class="df07b047-dcf5-4eb0-9994-5bb6abb0d645" cx="110.76" cy="64.4" rx="4.77" ry="7.36" transform="translate(-15.7 43.87) rotate(-20.95)"/></svg>